<?xml version="1.0" standalone="no"?>
<!DOCTYPE svg PUBLIC "-//W3C//DTD SVG 20010904//EN"
 "http://www.w3.org/TR/2001/REC-SVG-20010904/DTD/svg10.dtd">
<svg version="1.0" xmlns="http://www.w3.org/2000/svg"
 width="5000.000000pt" height="5000.000000pt" viewBox="0 0 5000.000000 5000.000000"
 preserveAspectRatio="xMidYMid meet">

<g transform="translate(0.000000,5000.000000) scale(0.100000,-0.100000)"
fill="#000000" stroke="none">
<path d="M10315 38233 c-83 -11 -285 -56 -395 -88 -497 -143 -941 -417 -1370
-845 -640 -639 -1271 -1685 -1679 -2784 -311 -837 -549 -1838 -657 -2766 -10
-80 -21 -149 -25 -153 -11 -13 -294 102 -498 203 -372 183 -712 392 -1047 643
-649 485 -1267 1146 -1739 1857 -300 453 -503 850 -835 1635 -114 271 -156
359 -246 519 -99 177 -253 436 -281 475 -59 77 -208 143 -397 176 -140 24
-225 16 -266 -25 -10 -10 -32 -63 -49 -118 l-31 -100 0 -330 0 -329 54 -189
c166 -576 367 -1026 688 -1539 598 -955 1353 -1724 2339 -2383 626 -418 1312
-757 2029 -1003 l225 -77 0 -43 c0 -24 -7 -159 -15 -299 -17 -309 -18 -1059
-1 -1360 34 -617 89 -1139 182 -1700 262 -1590 682 -2779 1322 -3740 233 -350
565 -730 772 -883 94 -70 284 -165 413 -207 197 -63 458 -98 650 -86 86 6 115
3 175 -13 311 -86 661 -103 952 -45 291 57 674 248 960 478 760 612 1171 1635
1039 2589 -9 65 -14 120 -12 122 3 4 201 74 570 203 42 15 78 25 81 22 2 -3
-9 -115 -24 -250 -107 -955 -74 -1394 130 -1726 239 -388 754 -672 1376 -760
172 -24 401 -22 532 4 198 40 399 125 583 248 306 203 640 564 956 1034 278
413 476 861 614 1393 66 252 141 653 166 883 l6 61 127 6 c164 9 500 7 575 -2
53 -7 64 -12 94 -47 52 -59 108 -160 139 -249 26 -75 28 -90 27 -245 -1 -283
-35 -419 -269 -1075 -180 -505 -286 -1032 -326 -1620 -15 -219 -6 -713 15
-850 58 -385 168 -649 370 -894 183 -222 513 -422 926 -563 414 -142 757 -152
927 -29 123 89 63 189 -184 306 -76 36 -145 69 -153 73 -28 15 -188 223 -224
291 -78 149 -144 408 -167 655 -15 163 -6 681 15 896 31 309 90 658 157 922
36 145 78 283 180 598 141 432 189 654 189 871 0 383 -148 710 -430 956 -299
259 -809 476 -1322 563 -158 26 -396 50 -511 50 l-88 0 8 163 c34 678 -48
1088 -277 1396 -175 235 -470 411 -820 487 -121 27 -405 27 -505 0 -392 -104
-624 -433 -724 -1026 -65 -379 -10 -677 167 -910 246 -325 769 -584 1366 -676
126 -20 117 5 82 -229 -31 -200 -66 -375 -116 -575 -280 -1120 -918 -1950
-1709 -2224 -136 -47 -262 -79 -272 -69 -17 17 -71 161 -94 250 -62 237 -64
456 -12 1198 94 1329 110 1709 78 1935 -33 238 -114 533 -170 623 -79 123
-387 242 -661 254 -99 5 -137 2 -181 -11 -53 -15 -60 -20 -110 -93 -212 -303
-285 -547 -355 -1190 l-28 -253 -155 -51 c-86 -29 -277 -94 -425 -145 -148
-52 -274 -94 -280 -94 -6 0 -34 49 -63 108 -100 207 -259 422 -426 577 -394
368 -952 619 -1587 716 -119 18 -190 23 -390 23 -150 0 -280 -4 -335 -12 -425
-61 -748 -183 -1055 -400 -186 -131 -451 -417 -583 -630 -25 -40 -47 -69 -50
-65 -3 5 -26 106 -51 224 -145 691 -232 1331 -287 2114 -17 245 -23 1190 -10
1471 7 137 14 250 16 253 2 2 75 -4 162 -13 311 -31 505 -38 884 -33 483 6
727 34 1109 128 1058 260 1937 882 2544 1803 303 459 621 1155 780 1711 322
1126 261 2211 -163 2895 -333 536 -937 902 -1708 1035 -137 24 -162 25 -511
24 -202 -1 -380 -4 -397 -6z m1256 -503 c210 -109 403 -325 529 -593 216 -458
288 -1058 204 -1712 -106 -833 -396 -1605 -832 -2215 -681 -955 -1558 -1592
-2517 -1829 -200 -49 -388 -78 -655 -101 -149 -13 -620 -14 -632 -2 -9 9 25
321 67 604 155 1047 440 2081 821 2978 101 238 356 748 480 960 638 1090 1269
1692 1975 1884 148 40 261 55 395 52 104 -2 128 -6 165 -26z m5088 -8570 c26
-12 85 -61 142 -117 93 -91 100 -100 130 -182 73 -202 99 -389 99 -713 -1
-201 -14 -536 -23 -544 -6 -6 -213 24 -278 41 -95 24 -216 88 -286 150 -113
101 -204 265 -237 427 -20 98 -21 279 -1 391 19 108 75 280 117 359 90 170
219 241 337 188z m-6300 -1870 c47 -5 101 -18 123 -30 21 -11 43 -20 49 -20
20 0 135 -85 203 -149 177 -170 351 -522 420 -849 27 -127 50 -317 44 -370
l-3 -33 -290 -113 c-519 -202 -696 -278 -980 -421 -311 -157 -425 -224 -532
-315 -201 -169 -391 -455 -497 -745 -20 -55 -40 -108 -44 -118 -9 -21 -123
187 -231 422 -82 177 -88 206 -98 451 -19 519 123 1045 392 1449 285 429 747
760 1164 835 93 17 170 19 280 6z m776 -2077 c-14 -77 -76 -276 -121 -390
-170 -433 -449 -830 -789 -1122 -107 -92 -267 -211 -283 -211 -16 0 -27 120
-26 275 1 164 31 326 90 495 72 209 148 324 339 516 148 150 201 190 361 275
122 66 404 198 423 199 10 0 12 -9 6 -37z"/>
<path d="M20313 37805 c-18 -8 -42 -29 -53 -47 -20 -33 -20 -48 -20 -1085 l0
-1053 -910 0 -910 0 0 988 c0 961 -1 988 -20 1019 -29 47 -72 66 -141 61 -45
-3 -65 -10 -85 -29 -57 -52 -54 92 -54 -2231 0 -2053 1 -2145 18 -2178 12 -23
35 -43 65 -59 67 -33 127 -24 179 29 l38 38 0 1026 0 1026 910 0 910 0 0
-1036 c0 -1167 -6 -1075 78 -1115 79 -39 177 -7 208 67 12 28 14 384 14 2256
0 2096 -1 2225 -18 2258 -36 72 -128 101 -209 65z"/>
<path d="M24934 37810 c-50 -4 -104 -15 -121 -24 -44 -22 -80 -69 -88 -115 -3
-22 -13 -42 -20 -45 -8 -3 -21 -19 -30 -35 -14 -27 -15 -250 -13 -2186 l3
-2157 37 -33 c51 -47 111 -55 175 -24 89 44 83 -34 83 1030 l0 935 201 -4
c231 -5 360 7 525 48 268 67 499 194 674 370 389 390 466 927 204 1430 -244
470 -719 762 -1318 810 -140 11 -175 11 -312 0z m481 -330 c342 -72 609 -228
782 -458 101 -134 175 -300 203 -454 16 -87 14 -264 -5 -344 -81 -359 -391
-641 -815 -741 -117 -28 -376 -42 -534 -28 l-86 7 0 967 0 968 25 23 c14 13
28 39 31 58 l7 35 146 -6 c85 -4 188 -15 246 -27z"/>
<path d="M29452 37779 c-61 -40 -81 -124 -49 -200 8 -19 234 -486 502 -1039
308 -636 497 -1016 516 -1036 l30 -31 -472 -1014 c-259 -558 -475 -1025 -481
-1039 -15 -38 -12 -104 7 -139 36 -70 147 -95 215 -48 35 23 -24 -102 1799
3820 132 284 205 453 208 480 5 53 -20 103 -67 135 -49 33 -137 28 -178 -11
-19 -18 -164 -320 -452 -942 -303 -651 -428 -911 -434 -901 -5 8 -220 447
-476 977 -339 700 -474 969 -493 983 -41 30 -133 33 -175 5z"/>
<path d="M27319 37720 c-126 -12 -181 -48 -195 -129 -4 -20 -17 -48 -30 -62
-14 -14 -29 -41 -34 -60 -6 -22 -10 -797 -10 -2148 0 -2087 0 -2115 20 -2156
26 -53 70 -79 137 -79 57 0 90 17 127 68 21 27 21 36 24 970 l2 942 208 -4
c338 -7 555 35 811 154 312 146 561 416 674 731 148 412 20 926 -321 1285
-247 259 -558 414 -949 473 -123 18 -353 26 -464 15z m494 -330 c456 -96 757
-325 920 -699 64 -147 92 -357 68 -508 -27 -177 -124 -355 -268 -494 -173
-167 -390 -271 -658 -314 -93 -15 -329 -20 -447 -8 l-68 6 0 967 c0 956 0 967
20 985 11 10 26 36 32 58 l12 40 146 -6 c84 -4 186 -15 243 -27z"/>
<path d="M23022 37604 c-18 -9 -42 -29 -53 -45 -11 -15 -384 -963 -830 -2106
-605 -1549 -811 -2089 -812 -2121 -1 -107 135 -180 229 -122 18 12 43 41 56
68 13 26 138 343 278 704 l255 658 667 0 668 0 5 -22 c3 -13 61 -313 130 -667
108 -556 128 -648 147 -669 35 -37 72 -52 129 -52 46 0 55 4 89 38 25 25 41
51 46 77 10 53 -787 4167 -814 4204 -47 64 -128 87 -190 55z m208 -1670 c105
-538 190 -982 190 -986 0 -5 -259 -8 -575 -8 -316 0 -575 3 -575 8 0 11 764
1971 767 1968 2 -2 89 -444 193 -982z"/>
<path d="M33395 33624 c-320 -59 -561 -208 -712 -441 -85 -130 -136 -256 -281
-688 -179 -534 -237 -746 -322 -1165 -162 -802 -342 -2262 -425 -3440 -14
-201 -28 -405 -33 -455 l-7 -90 -46 65 c-56 79 -193 211 -274 267 -249 169
-618 264 -970 250 -387 -16 -664 -131 -928 -386 -145 -140 -269 -306 -351
-470 -138 -273 -230 -773 -230 -1246 0 -303 28 -498 104 -726 173 -520 570
-903 1199 -1156 327 -131 610 -188 936 -187 213 0 329 16 479 65 231 76 443
244 552 437 l28 49 95 -64 c245 -164 543 -282 856 -338 142 -26 407 -31 543
-11 385 57 738 286 961 622 l67 102 85 -101 c356 -426 1034 -716 1734 -744
475 -18 847 111 1154 400 l62 57 69 -40 c201 -117 492 -216 751 -254 137 -21
384 -21 509 -1 250 41 483 162 683 354 80 77 227 257 239 292 3 9 30 -10 80
-57 287 -267 873 -514 1343 -565 145 -15 391 -6 510 20 122 26 274 82 358 131
39 22 72 39 74 36 14 -13 43 -726 43 -1044 l0 -248 -82 -23 c-176 -50 -566
-185 -765 -265 -1751 -707 -3042 -1902 -3478 -3221 -105 -315 -140 -537 -132
-835 5 -205 19 -304 63 -458 159 -550 674 -983 1424 -1195 802 -227 1588 -156
2215 201 675 384 1270 1195 1674 2279 227 609 385 1341 455 2108 31 331 56
818 56 1086 l0 116 133 22 c414 67 845 89 1167 61 259 -23 538 -82 736 -155
267 -98 656 -326 872 -512 l33 -28 -105 -205 c-278 -544 -427 -987 -493 -1470
-20 -153 -23 -518 -4 -665 51 -402 188 -707 434 -962 261 -270 578 -425 952
-463 462 -48 831 127 1057 500 188 311 217 775 82 1311 -152 607 -478 1190
-953 1706 l-112 122 77 133 c43 73 185 310 316 526 274 451 388 647 516 888
330 618 524 1195 599 1779 21 171 25 600 5 740 -54 387 -170 685 -368 950
-258 345 -693 573 -1226 641 -191 24 -476 15 -644 -20 -532 -112 -890 -409
-1032 -856 -45 -144 -57 -227 -56 -405 1 -179 20 -296 75 -452 71 -200 134
-286 282 -383 288 -190 826 -281 1139 -194 70 20 128 68 128 106 0 14 -22 72
-49 129 -54 115 -91 224 -118 350 -14 65 -18 128 -18 279 0 172 3 205 23 283
51 191 122 317 246 435 90 86 121 96 256 89 114 -6 164 -20 197 -55 80 -86
207 -328 273 -517 147 -426 169 -793 73 -1225 -99 -446 -293 -942 -566 -1445
-118 -218 -455 -778 -753 -1252 l-14 -22 -77 48 c-500 309 -1135 533 -1778
625 -339 49 -793 68 -1124 47 -101 -6 -185 -10 -186 -9 -1 2 -8 122 -14 268
-41 920 -193 2257 -376 3310 -24 140 -49 305 -55 365 -33 328 -64 466 -142
618 -73 140 -193 232 -365 279 -116 31 -340 32 -439 1 -176 -56 -248 -168
-247 -383 6 -1158 9 -1240 54 -1821 l12 -146 -42 -143 c-119 -409 -249 -612
-505 -788 l-74 -52 -104 0 c-168 1 -248 29 -338 120 -157 159 -201 390 -240
1250 -21 456 -50 807 -81 968 -65 335 -213 552 -455 667 -136 65 -233 88 -374
89 -108 0 -133 -3 -183 -23 -125 -49 -225 -181 -268 -352 -19 -75 -22 -126
-29 -494 -9 -422 1 -1005 20 -1175 5 -52 17 -143 26 -201 l16 -105 -53 -90
c-122 -207 -227 -351 -354 -483 -143 -150 -296 -258 -382 -271 -40 -6 -46 -4
-79 28 -99 96 -159 332 -219 857 -39 349 -80 523 -160 692 -124 263 -307 430
-542 494 -206 57 -419 6 -570 -134 -82 -77 -121 -136 -173 -266 -35 -87 -42
-117 -51 -218 -35 -421 -90 -646 -219 -892 -124 -235 -293 -408 -524 -536 -67
-37 -70 -38 -114 -26 -24 6 -69 23 -100 38 -51 24 -57 31 -88 97 -93 203 -119
332 -119 601 0 180 3 226 23 324 70 346 217 635 432 852 117 118 219 191 354
254 208 97 319 115 579 91 280 -27 308 -23 346 45 29 51 22 84 -30 143 -132
150 -539 307 -969 373 -162 25 -570 25 -725 0 -282 -45 -495 -123 -685 -250
-345 -230 -606 -603 -726 -1035 -36 -134 -64 -307 -64 -404 0 -56 -6 -72 -66
-187 -123 -236 -281 -450 -463 -631 -119 -119 -199 -183 -314 -252 -69 -42
-220 -108 -245 -108 -14 0 -79 148 -106 242 -63 219 -81 443 -72 918 17 902
53 1640 137 2764 l30 409 86 91 c451 478 857 1253 1093 2083 149 524 230 1081
230 1582 0 405 -62 597 -254 786 -131 129 -294 215 -496 260 -106 24 -398 29
-505 9z m682 -290 c-3 -3 -12 -4 -19 -1 -8 3 -5 6 6 6 11 1 17 -2 13 -5z m6
-166 c28 -28 71 -156 94 -280 26 -134 25 -711 0 -948 -83 -756 -312 -1495
-671 -2159 -120 -223 -216 -380 -216 -354 0 11 11 167 25 345 70 917 125 1861
125 2154 l0 141 60 214 c79 286 191 613 241 710 46 87 124 168 180 186 19 6
58 11 87 12 42 1 57 -3 75 -21z m-3061 -5768 c158 -48 212 -109 368 -412 68
-131 93 -190 105 -248 66 -326 65 -831 -1 -1185 -19 -99 -116 -306 -210 -448
-116 -174 -303 -350 -542 -511 l-102 -70 -33 16 c-73 36 -116 77 -151 145 -68
136 -120 316 -153 523 -27 171 -24 570 6 820 86 727 196 1049 447 1298 l93 92
54 0 c30 0 84 -9 119 -20z m11284 -5292 c-17 -300 -64 -705 -122 -1038 -169
-983 -503 -1871 -958 -2545 -463 -686 -1058 -1122 -1607 -1177 l-118 -12 -71
48 c-38 27 -102 82 -140 123 -214 229 -335 532 -359 895 -45 685 247 1396 861
2101 114 131 361 379 504 507 425 381 887 690 1446 965 180 89 540 250 567
254 2 1 1 -54 -3 -121z m5127 -919 c282 -458 467 -1020 484 -1474 15 -394 -84
-685 -303 -896 -81 -77 -156 -128 -237 -158 -69 -25 -74 -24 -148 57 -69 74
-117 146 -173 259 -288 582 -216 1436 199 2340 l38 83 37 -53 c21 -28 67 -100
103 -158z"/>
<path d="M26095 32974 c-326 -48 -537 -190 -747 -504 -277 -412 -428 -1006
-557 -2190 -137 -1247 -184 -1928 -236 -3432 l-15 -428 -34 -47 c-19 -27 -50
-88 -71 -138 -53 -131 -231 -492 -304 -620 -305 -531 -807 -1000 -1266 -1184
-100 -40 -288 -93 -376 -105 l-46 -7 -27 60 c-36 80 -63 190 -75 308 -18 161
-33 914 -26 1263 12 637 30 960 120 2185 22 300 7 262 135 341 59 37 164 109
232 159 247 185 403 331 851 797 350 363 511 490 755 594 159 68 212 108 212
163 0 119 -230 291 -525 394 -544 188 -958 89 -1445 -346 l-96 -85 -12 172
c-23 338 -100 683 -199 892 -41 88 -160 151 -303 161 -100 7 -118 -3 -216
-119 -355 -424 -559 -1027 -739 -2193 -47 -306 -40 -280 -88 -307 -213 -120
-553 -228 -820 -263 -288 -37 -514 -12 -917 103 -119 34 -273 38 -331 9 -72
-36 -75 -92 -10 -155 75 -71 356 -227 546 -301 381 -150 896 -234 1323 -217
l154 6 -6 -48 c-8 -61 -32 -365 -45 -557 -29 -427 -36 -682 -36 -1370 0 -646
2 -745 18 -861 53 -387 134 -572 339 -769 204 -198 485 -339 863 -434 205 -51
501 -66 713 -36 644 92 1260 495 1665 1092 l55 82 6 -77 c13 -166 27 -289 37
-326 40 -143 375 -327 749 -410 219 -48 356 -57 506 -31 98 18 160 41 188 74
27 29 44 130 51 301 8 187 21 258 99 536 129 459 225 685 401 949 159 239 375
439 588 547 58 29 66 30 157 26 82 -3 102 -7 141 -30 115 -68 207 -217 260
-425 29 -112 30 -125 25 -263 -6 -167 -28 -286 -88 -470 -86 -267 -227 -556
-688 -1420 -257 -481 -349 -669 -423 -867 -54 -143 -110 -340 -132 -468 -25
-138 -30 -389 -11 -507 67 -407 313 -725 711 -918 117 -57 319 -130 422 -154
310 -70 600 -20 848 147 70 48 370 344 438 434 161 211 295 506 342 753 26
138 39 404 26 538 -7 64 -16 122 -22 129 -18 21 -47 25 -76 9 -24 -12 -39 -42
-98 -188 -38 -95 -113 -261 -166 -368 -77 -155 -111 -211 -165 -275 -103 -122
-272 -284 -415 -399 -115 -92 -137 -106 -211 -129 -46 -14 -111 -31 -146 -38
-78 -15 -231 -7 -292 15 -154 56 -267 212 -278 383 -5 84 17 233 53 358 62
214 100 294 791 1645 340 666 424 855 503 1135 73 261 96 555 58 761 -112 613
-596 1020 -1357 1140 -84 14 -168 18 -310 18 -171 0 -210 -4 -321 -27 -201
-42 -443 -136 -597 -232 l-43 -27 6 114 c3 62 10 244 16 403 11 330 65 1591
75 1765 l6 115 52 40 c370 289 739 712 951 1090 391 699 483 1448 236 1932
-154 304 -455 516 -853 604 -90 20 -384 34 -463 23z m723 -621 c56 -110 112
-273 138 -408 26 -128 26 -467 1 -618 -83 -489 -286 -979 -582 -1402 -65 -93
-140 -189 -178 -230 -6 -6 -7 48 -3 145 23 563 37 1008 40 1360 4 342 8 427
26 550 38 264 87 433 161 556 37 60 80 104 184 188 l70 56 46 -49 c26 -27 69
-94 97 -148z"/>
<path d="M13265 30520 c-207 -24 -374 -100 -506 -230 -73 -73 -94 -101 -132
-180 -82 -170 -112 -343 -104 -595 6 -187 27 -283 89 -415 137 -286 562 -483
1043 -484 185 0 240 11 375 77 70 33 101 57 177 133 80 80 99 94 155 113 164
55 253 185 278 409 17 151 -16 413 -70 555 -48 127 -171 273 -311 368 -255
173 -693 282 -994 249z"/>
<path d="M20856 20234 c-253 -50 -460 -179 -615 -383 -191 -251 -266 -414
-346 -746 -37 -154 -78 -389 -97 -560 -18 -166 -16 -526 5 -663 46 -296 160
-526 340 -681 137 -118 304 -210 487 -269 186 -59 244 -67 485 -66 206 0 226
2 320 27 192 52 337 137 480 281 138 139 248 312 340 531 213 508 271 1188
139 1642 -107 369 -372 640 -784 798 -96 38 -250 78 -357 94 -97 15 -312 12
-397 -5z m545 -469 c91 -46 177 -178 212 -326 60 -245 44 -760 -33 -1086 -45
-192 -140 -443 -255 -674 -79 -159 -119 -220 -186 -288 -134 -133 -295 -147
-402 -33 -68 73 -87 121 -123 307 -23 118 -23 410 0 630 45 423 131 769 272
1091 86 197 242 378 348 405 45 11 114 0 167 -26z"/>
<path d="M26245 20161 c-60 -8 -112 -28 -132 -53 -6 -7 -77 -141 -158 -298
-198 -384 -382 -732 -398 -754 -11 -15 -32 6 -187 191 -309 366 -413 473 -560
573 -120 82 -295 150 -383 150 -105 0 -164 -71 -138 -166 22 -83 203 -363 435
-674 138 -185 418 -534 476 -595 l49 -50 -166 -295 c-273 -487 -322 -579 -379
-707 -76 -173 -124 -321 -124 -384 0 -139 119 -231 300 -231 161 0 259 66 481
322 153 175 293 375 563 799 314 492 752 1264 1000 1759 65 129 65 139 3 201
-84 86 -232 163 -372 194 -87 19 -231 28 -310 18z"/>
<path d="M19280 20039 c-300 -146 -550 -259 -577 -259 -35 0 -99 -29 -138 -62
-17 -14 -236 -114 -487 -221 -508 -218 -551 -238 -590 -275 -59 -54 -27 -141
67 -188 125 -60 352 -37 739 75 l68 20 -7 -52 c-28 -210 -37 -288 -55 -468
-40 -410 -126 -1702 -116 -1745 24 -94 227 -207 449 -249 94 -18 268 -19 316
-1 68 24 67 18 95 481 80 1298 92 1806 51 2160 -8 65 -12 121 -11 123 2 2 84
36 183 76 339 138 736 318 771 349 119 109 -234 307 -547 307 -62 0 -76 -5
-211 -71z"/>
<path d="M28098 20049 c-119 -10 -221 -32 -368 -80 -316 -102 -416 -194 -625
-577 -213 -390 -326 -826 -342 -1313 -9 -290 20 -466 103 -632 171 -341 593
-548 1119 -549 264 -1 437 37 660 146 442 216 754 637 860 1161 36 176 45 277
45 498 0 358 -35 560 -132 752 -168 331 -557 550 -1058 595 -126 11 -135 11
-262 -1z m493 -539 c63 -78 98 -243 106 -500 6 -201 -6 -357 -43 -540 -65
-325 -216 -631 -403 -819 -116 -116 -305 -236 -425 -269 -36 -10 -39 -9 -75
27 -106 106 -119 323 -55 881 33 291 110 587 203 782 146 307 366 482 595 475
66 -2 70 -4 97 -37z"/>
<path d="M30155 19802 c-167 -58 -308 -226 -334 -397 -4 -33 -20 -103 -34
-156 -107 -399 -170 -920 -170 -1404 -1 -291 8 -389 44 -524 63 -234 235 -415
498 -526 375 -158 835 -176 1144 -44 38 16 71 29 73 29 1 0 0 -38 -3 -84 -5
-76 -4 -88 17 -121 78 -127 467 -256 705 -233 85 7 148 31 164 61 23 46 86
720 113 1222 7 137 12 503 13 907 l0 677 -40 41 c-114 118 -429 221 -628 206
-89 -6 -166 -35 -168 -63 -1 -10 0 -103 1 -208 2 -220 -11 -325 -70 -562 -43
-177 -152 -537 -207 -682 -119 -321 -299 -578 -506 -725 -61 -43 -72 -48 -108
-43 -51 7 -101 45 -135 103 l-27 45 6 412 c6 479 22 698 93 1332 47 422 44
495 -28 608 -77 121 -266 180 -413 129z"/>
<path d="M32187 15108 c-4 -265 -7 -681 -7 -925 0 -419 1 -444 18 -439 9 3 31
8 47 12 84 18 2651 707 2658 713 4 4 -93 56 -215 116 -736 357 -1523 680
-2258 926 -129 44 -235 79 -236 79 0 0 -4 -217 -7 -482z"/>
<path d="M17550 15468 c-158 -45 -766 -238 -1030 -326 -560 -189 -1011 -357
-1469 -548 -220 -92 -238 -100 -230 -108 8 -7 2791 -748 2794 -744 0 2 -1 393
-3 871 -3 639 -7 867 -16 866 -6 0 -27 -5 -46 -11z"/>
<path d="M34950 14522 c0 -6 -3 -17 -6 -26 -4 -11 0 -16 14 -16 30 0 35 15 12
35 -11 10 -20 13 -20 7z"/>
</g>
</svg>
